<svg viewBox="-6 0 512 512" xmlns="http://www.w3.org/2000/svg"><path d="m67.6875 392.820312c2.550781 5.734376 7.164062 10.125 12.996094 12.363282 2.71875 1.046875 5.550781 1.566406 8.382812 1.566406 3.246094 0 6.488282-.683594 9.550782-2.046875 5.734374-2.546875 10.125-7.164063 12.367187-12.992187l6.347656-16.519532c16.292969 18.972656 36.375 34.390625 58.742188 44.953125 1.035156.488281 2.125.71875 3.199219.71875 2.8125 0 5.503906-1.585937 6.785156-4.296875 1.769531-3.746094.167968-8.21875-3.578125-9.984375-22.902344-10.816406-43.203125-27.199219-58.953125-47.503906l47.847656-124.503906c.714844-1.855469.660156-3.921875-.148438-5.738281-.808593-1.816407-2.304687-3.238282-4.160156-3.953126l-8.953125-3.4375 16.820313-43.765624c3.359375.742187 6.785156 1.121093 10.253906 1.121093 10.683594 0 21.75-3.511719 32.3125-10.398437 15.546875-10.136719 28.261719-26.53125 35.808594-46.167969 4-10.40625 6.296875-21.109375 6.875-31.546875 18.957031 1.226562 37.316406 5.804688 54.667968 13.65625 1.003907.457031 2.054688.671875 3.085938.671875 2.855469 0 5.585938-1.640625 6.839844-4.410156 1.707031-3.773438.03125-8.21875-3.742188-9.925781-19.425781-8.792969-40-13.832032-61.246094-15.039063-.445312-3.988281-1.152343-7.890625-2.152343-11.667969-4.988281-18.8125-16.246094-32.441406-31.695313-38.378906-15.453125-5.941406-32.9375-3.355469-49.242187 7.273438-15.546875 10.132812-28.261719 26.527343-35.808594 46.164062-5.199219 13.527344-7.542969 27.550781-6.945313 40.835938-.1875.136718-.371093.285156-.546874.445312-38.085938 34.3125-59.925782 83.769531-59.925782 135.6875 0 23.714844 4.417969 46.726562 13.117188 68.453125l-19.382813 50.433594c-2.238281 5.828125-2.070312 12.199219.480469 17.933593zm87.203125-308.410156c6.421875-16.710937 17.078125-30.554687 30-38.980468 8.058594-5.253907 16.339844-7.9375 24.164063-7.9375 3.980468 0 7.847656.695312 11.503906 2.101562 10.835937 4.164062 18.851562 14.1875 22.578125 28.222656 3.953125 14.910156 2.59375 32.324219-3.832031 49.039063-12.9375 33.65625-42.394532 53.761719-65.667969 44.816406-10.835938-4.164063-18.855469-14.1875-22.574219-28.222656-3.957031-14.910157-2.59375-32.324219 3.828125-49.039063zm-66.417969 171.589844c0-44.53125 17.484375-87.070312 48.253906-118.136719 4.222657 15.4375 12.703126 27.320313 24.273438 34.25l-16.890625 43.949219-6.820313-2.621094c-3.867187-1.484375-8.203124.445313-9.691406 4.3125l-32.632812 84.914063c-4.308594-15.066407-6.492188-30.691407-6.492188-46.667969zm-7.261718 124.269531 57.699218-150.136719 15.769532 6.0625-46.710938 121.542969c-.003906.015625-.011719.027344-.015625.042969l-10.972656 28.546875c-.804688 2.09375-2.386719 3.75-4.460938 4.671875s-4.367187.988281-6.457031.183594c-2.089844-.800782-3.746094-2.386719-4.667969-4.457032-.921875-2.074218-.988281-4.367187-.183593-6.457031zm0 0"/><path d="m448.722656 410.925781c33.332032-44.820312 50.925782-98.273437 50.925782-154.925781 0-68.34375-25.960938-132.609375-73.105469-180.953125-47.191407-48.394531-109.953125-75.046875-176.71875-75.046875-51.945313 0-101.746094 16.183594-144.019531 46.796875-41.304688 29.910156-72.453126 71.273437-90.078126 119.621094-1.417968 3.894531.585938 8.195312 4.476563 9.617187 3.894531 1.417969 8.195313-.585937 9.613281-4.480468 16.597656-45.523438 45.914063-84.460938 84.785156-112.609376 39.699219-28.75 86.457032-43.945312 135.222657-43.945312 62.6875 0 121.636719 25.042969 165.980469 70.519531 44.394531 45.527344 68.84375 106.070313 68.84375 170.480469 0 51.050781-15.152344 99.328125-43.921876 140.363281l-33.222656-60.507812c.644532-.625 1.199219-1.359375 1.601563-2.21875 11.328125-24.347657 17.070312-50.46875 17.070312-77.636719 0-60.320312-29.226562-116.433594-78.179687-150.097656-3.410156-2.347656-8.082032-1.480469-10.429688 1.929687-2.347656 3.414063-1.480468 8.082031 1.929688 10.429688 44.882812 30.867187 71.679687 82.355469 71.679687 137.738281 0 22.222656-4.1875 43.671875-12.441406 63.878906l-.945313-1.722656c-1.992187-3.628906-6.550781-4.957031-10.183593-2.964844l-7.40625 4.066406-31.222657-56.871093c-.683593-1.246094-1.675781-2.210938-2.820312-2.875l.652344-.359375c9.265625-5.085938 16.003906-13.507813 18.972656-23.710938 2.972656-10.207031 1.808594-20.929687-3.277344-30.191406l-32.050781-58.378906c-5.257813-9.570313-17.320313-13.082032-26.894531-7.828125-4.679688 2.570312-7.910156 6.765625-9.378906 11.503906-4.785157-1.304687-10.058594-.832031-14.738282 1.734375-4.464844 2.453125-7.609375 6.382812-9.164062 10.851562-4.601563-1.085937-9.609375-.542968-14.070313 1.90625-4.625 2.539063-7.988281 6.742188-9.472656 11.828126-1.480469 5.089843-.898437 10.441406 1.640625 15.066406l20.457031 37.257812c.125.332032.273438.65625.445313.972656l11.082031 20.183594c7.214844 13.144532 20.835937 20.585938 34.867187 20.585938 6.453126 0 12.992188-1.574219 19.039063-4.894532l.652344-.355468c-.058594 1.324218.226562 2.675781.910156 3.921875l31.222656 56.871093-7.40625 4.066407c-1.742187.957031-3.035156 2.570312-3.589843 4.480469-.558594 1.910156-.332032 3.960937.625 5.703124l13.839843 25.203126c-30.660156 35.460937-74.433593 55.726562-120.695312 55.726562-11.808594 0-23.589844-1.3125-35.007813-3.90625-4.039062-.917969-8.058594 1.613281-8.976562 5.652344-.917969 4.039062 1.613281 8.058594 5.652344 8.976562 12.507812 2.839844 25.40625 4.277344 38.328124 4.277344 48.808594 0 95.070313-20.578125 128.355469-56.769531l29.785157 54.25c-43.332032 40.550781-99.375 62.863281-158.136719 62.863281-62.6875 0-121.632813-25.042969-165.976563-70.519531-44.398437-45.527344-68.847656-106.070313-68.847656-170.480469 0-17.152344 1.765625-34.269531 5.242188-50.878906.847656-4.054688-1.75-8.027344-5.804688-8.878906-4.050781-.847657-8.027344 1.75-8.878906 5.804687-3.6875 17.617187-5.558594 35.769531-5.558594 53.953125 0 68.34375 25.960938 132.609375 73.105469 180.953125 47.195312 48.394531 109.953125 75.046875 176.71875 75.046875 61.324219 0 119.855469-22.789062 165.582031-64.3125l22.292969 40.601562c3.003906 5.476563 7.976562 9.457032 14.003906 11.210938 2.183594.636719 4.40625.953125 6.617187.953125 3.882813 0 7.726563-.976563 11.214844-2.894531 5.476563-3.003906 9.457032-7.976563 11.210938-14.003906 1.753906-6.023438 1.066406-12.359376-1.941406-17.832032zm-121.675781-158.035156c-11.9375 6.554687-26.984375 2.175781-33.539063-9.761719l-10.566406-19.25c-.125-.332031-.273437-.65625-.449218-.972656l-20.96875-38.191406c-1.253907-2.285156-.382813-5.273438 1.902343-6.527344 2.285157-1.253906 5.269531-.382812 6.523438 1.902344l20.972656 38.191406c1.992187 3.628906 6.550781 4.960938 10.183594 2.964844l1.660156-.910156c1.742187-.957032 3.035156-2.570313 3.589844-4.480469.554687-1.910157.332031-3.960938-.625-5.703125l-20.96875-38.195313c-1.253907-2.28125-.382813-5.269531 1.898437-6.523437s5.273438-.386719 6.527344 1.898437l20.96875 38.191407c1.992188 3.632812 6.550781 4.960937 10.183594 2.964843l2.542968-1.394531c1.742188-.957031 3.035157-2.566406 3.589844-4.476562.554688-1.910157.332032-3.964844-.625-5.707032l-20.96875-38.191406c-1.253906-2.285156-.386718-5.273438 1.898438-6.527344 1.113281-.613281 2.410156-.75 3.652344-.386718 1.242187.359374 2.261718 1.171874 2.875 2.285156l32.046874 58.378906c3.160157 5.75 3.878907 12.421875 2.027344 18.777344-1.851562 6.359375-6.039062 11.601562-11.789062 14.757812zm135.269531 231.523437c-4.082031 2.238282-9.226562.742188-11.46875-3.339843l-77.40625-140.992188 14.8125-8.128906 45 81.964844c.007813.019531.019532.042969.03125.0625l32.371094 58.960937c2.242188 4.082032.746094 9.230469-3.339844 11.472656zm0 0"/></svg>